# xmcd CD database file
#
# Track frame offsets:
#	150
#	18300
#	33225
#	47625
#	65100
#	78000
#	85950
#	100350
#	117225
#	135975
#	153975
#	163200
#
# Disc length: 2463 seconds
#
# Revision: 1
# Processed by: cddbd v1.5.1PL2 Copyright (c) Steve Scherf et al.
# Submitted via: freeDBTagger 0.8.1.0
#
DISCID=91099d0c
DTITLE=WRONG SCALE - Upstairs for the bed
DYEAR=2003
DGENRE=rock
TTITLE0=The day rain changes to the ra
TTITLE1=The day rain changes to the ra
TTITLE2=The day rain changes to the ra
TTITLE3=The day rain changes to the ra
TTITLE4=The day rain changes to the ra
TTITLE5=The day rain changes to the ra
TTITLE6=The day rain changes to the ra
TTITLE7=The day rain changes to the ra
TTITLE8=The day rain changes to the ra
TTITLE9=The day rain changes to the ra
TTITLE10=The day rain changes to the ra
TTITLE11=The day rain changes to the ra
EXTD=
EXTT0=
EXTT1=
EXTT2=
EXTT3=
EXTT4=
EXTT5=
EXTT6=
EXTT7=
EXTT8=
EXTT9=
EXTT10=
EXTT11=
PLAYORDER=
